<svg width="119" height="34" viewBox="0 0 119 34" fill="none" xmlns="http://www.w3.org/2000/svg">
<path fill-rule="evenodd" clip-rule="evenodd" d="M16.9488 6.10834C15.2002 5.22016 13.1662 4.66401 11.0652 4.66401C6.67792 4.66401 3.62452 7.22138 3.62452 10.8955C3.62452 14.6193 6.80525 17.9371 11.7021 17.9371C14.0866 17.9371 16.4716 17.2525 18.4748 16.341H18.5696L16.9488 19.2797C15.4549 19.8368 13.8021 20.0396 12.1478 20.0396C4.64314 20.0396 0 16.6958 0 11.2756C0 6.03232 4.64314 2.5625 11.1615 2.5625C13.1007 2.5625 15.0734 2.84009 16.9488 3.19516V6.10834Z" fill="#1D1D1D"/>
<path fill-rule="evenodd" clip-rule="evenodd" d="M27.8655 18.2909C24.6218 18.2909 22.8727 15.7838 22.8727 13.4533C22.8727 11.173 24.7811 9.3233 27.7367 9.3233C31.1411 9.3233 32.7949 11.7566 32.7949 14.2132C32.7949 16.492 30.7901 18.2909 27.8655 18.2909ZM27.7003 19.963C32.1848 19.963 36.0002 17.3286 36.0002 13.6817C36.0002 11.9584 35.0139 10.2867 33.3926 9.14768C31.8669 8.08245 30.1173 7.65234 28.0818 7.65234C23.5034 7.65234 19.6562 10.1089 19.6562 13.9095C19.6562 17.5049 23.3451 19.963 27.7003 19.963Z" fill="#1D1D1D"/>
<path fill-rule="evenodd" clip-rule="evenodd" d="M39.5223 7.98241C40.2208 7.98241 40.9838 7.95568 41.4931 7.65234H41.5884V9.65356C42.7021 8.285 43.9406 7.65234 46.0729 7.65234C48.3296 7.65234 49.8563 8.36372 51.0323 9.85538C52.2738 8.48731 53.7677 7.65234 56.1192 7.65234C60.6375 7.65234 61.813 9.70432 61.813 12.9213V16.8217C61.813 17.9108 61.6226 19.152 63.2121 19.5567V19.6334H57.7107V19.5567C59.1098 18.9245 58.9192 17.988 58.9192 16.8217V13.5545C58.9192 10.9706 57.9003 9.32301 55.3577 9.32301C52.4955 9.32301 51.7002 10.7683 51.7002 13.1482V16.8217C51.7002 17.988 51.5096 18.9245 52.9087 19.5567V19.6334H47.5984V19.5567C48.9975 18.9245 48.8074 17.988 48.8074 16.8217V13.325C48.8074 10.6666 47.1526 9.32301 45.1816 9.32301C42.7656 9.32301 41.5884 10.5153 41.5884 12.9463V16.8217C41.5884 17.988 41.3978 18.898 42.7656 19.5567V19.6334H37.4863V19.5567C38.8864 18.9245 38.6951 17.988 38.6951 16.8217V10.7683C38.6951 9.60207 38.8864 8.69231 37.4863 8.05744V7.98241H39.5223Z" fill="#1D1D1D"/>
<path fill-rule="evenodd" clip-rule="evenodd" d="M64.0372 7.98241C65.0531 7.98241 66.1986 8.10869 66.9613 7.65234H67.0561C67.0896 8.03292 67.2487 8.53954 67.4699 8.96892L71.192 16.6695L74.0833 10.7171C74.5313 9.80535 75.3265 8.59054 73.8001 8.05744V7.98241H77.9652V8.36372C77.9652 8.61556 78.2826 9.2492 78.411 9.52727L81.685 16.6695L84.6414 10.7171C85.0544 9.85538 85.9134 8.69231 84.1973 8.05744V7.98241H88.4583L82.1313 20.0888C79.9689 19.1771 79.7148 18.747 78.919 17.0741L76.1836 11.2497L71.8288 20.0888C69.5695 19.1521 69.2515 18.849 68.3942 17.0741L64.8958 9.95616C64.4485 9.09716 64.1948 8.56406 63.209 8.05744V7.98241H64.0372Z" fill="#1D1D1D"/>
<path fill-rule="evenodd" clip-rule="evenodd" d="M92.7463 11.9338C93.1308 10.3367 94.7171 9.32227 96.8486 9.32227C99.1388 9.32227 100.601 10.1594 100.951 11.9338H92.7463ZM104.299 13.402C104.427 10.1347 101.471 7.65234 97.1446 7.65234C92.4066 7.65234 89.1934 10.2117 89.1934 13.731C89.1934 17.2516 92.9157 19.9627 98.3206 19.9627C99.8152 19.9627 101.34 19.7845 102.709 19.3291L104.299 16.9495H104.202C102.741 17.8588 100.895 18.2906 98.9887 18.2906C95.3965 18.2906 92.6911 16.4917 92.6278 13.402H104.299Z" fill="#1D1D1D"/>
<path fill-rule="evenodd" clip-rule="evenodd" d="M107.89 0.466648C108.621 0.466648 109.447 0.495339 109.924 0H110.019V16.4004C110.019 17.74 109.797 18.817 111.198 19.5465V19.6336H105.951V19.5465C107.318 18.817 107.128 17.74 107.128 16.4004V3.69984C107.128 2.36046 107.318 1.28396 105.951 0.554926V0.466648H107.89Z" fill="#1D1D1D"/>
<path fill-rule="evenodd" clip-rule="evenodd" d="M114.888 0.466648C115.619 0.466648 116.447 0.495339 116.924 0H117.021V16.4004C117.021 17.74 116.796 18.817 118.194 19.5465V19.6336H112.947V19.5465C114.316 18.817 114.125 17.74 114.125 16.4004V3.69984C114.125 2.36046 114.316 1.28396 112.947 0.554926V0.466648H114.888Z" fill="#1D1D1D"/>
<path fill-rule="evenodd" clip-rule="evenodd" d="M35.0918 26.7002H36.667V29.3544H39.7266V26.7002H41.3018V33.8186H39.7266V30.7419H36.667V33.8186H35.0918V26.7002Z" fill="#1D1D1D"/>
<path fill-rule="evenodd" clip-rule="evenodd" d="M46.0058 30.2595C46.0058 30.5947 46.0578 30.9012 46.1622 31.1793C46.2666 31.4576 46.4164 31.6991 46.6117 31.9034C46.8067 32.1079 47.0407 32.2671 47.3136 32.3808C47.5862 32.4951 47.8906 32.5517 48.2273 32.5517C48.5637 32.5517 48.8686 32.4951 49.141 32.3808C49.4136 32.2671 49.6476 32.1079 49.8429 31.9034C50.0382 31.6991 50.1877 31.4576 50.2921 31.1793C50.3965 30.9012 50.4487 30.5947 50.4487 30.2595C50.4487 29.9311 50.3965 29.6261 50.2921 29.3446C50.1877 29.063 50.0382 28.82 49.8429 28.6155C49.6476 28.4113 49.4136 28.2519 49.141 28.1381C48.8686 28.0241 48.5637 27.9669 48.2273 27.9669C47.8906 27.9669 47.5862 28.0241 47.3136 28.1381C47.0407 28.2519 46.8067 28.4113 46.6117 28.6155C46.4164 28.82 46.2666 29.063 46.1622 29.3446C46.0578 29.6261 46.0058 29.9311 46.0058 30.2595ZM44.375 30.2596C44.375 29.6899 44.471 29.1735 44.6627 28.7113C44.8545 28.2488 45.1222 27.855 45.4655 27.5298C45.8088 27.2049 46.216 26.955 46.6873 26.7807C47.1585 26.6068 47.6734 26.5195 48.2323 26.5195C48.7908 26.5195 49.3058 26.6068 49.7772 26.7807C50.2483 26.955 50.6557 27.2049 50.999 27.5298C51.3423 27.855 51.6098 28.2488 51.8016 28.7113C51.9935 29.1735 52.0895 29.6899 52.0895 30.2596C52.0895 30.8292 51.9935 31.3454 51.8016 31.8079C51.6098 32.2704 51.3423 32.6642 50.999 32.9891C50.6557 33.3145 50.2483 33.5641 49.7772 33.7382C49.3058 33.9126 48.7908 33.9996 48.2323 33.9996C47.6734 33.9996 47.1585 33.9126 46.6873 33.7382C46.216 33.5641 45.8088 33.3145 45.4655 32.9891C45.1222 32.6642 44.8545 32.2704 44.6627 31.8079C44.471 31.3454 44.375 30.8292 44.375 30.2596Z" fill="#1D1D1D"/>
<path fill-rule="evenodd" clip-rule="evenodd" d="M56.567 28.0876H54.5273V26.7002H60.182V28.0876H58.1423V33.8186H56.567V28.0876Z" fill="#1D1D1D"/>
<path fill-rule="evenodd" clip-rule="evenodd" d="M63.0605 26.7002H67.9175V28.148H64.6358V29.4751H67.7357V30.9231H64.6358V32.3708H68.0992V33.8186H63.0605V26.7002Z" fill="#1D1D1D"/>
<path fill-rule="evenodd" clip-rule="evenodd" d="M71.4434 26.7002H73.0186V32.3708H75.9368V33.8186H71.4434V26.7002Z" fill="#1D1D1D"/>
<path fill-rule="evenodd" clip-rule="evenodd" d="M82.3564 28.4398C82.2284 28.279 82.0552 28.1598 81.8365 28.0828C81.6176 28.0058 81.4107 27.967 81.2154 27.967C81.1009 27.967 80.9832 27.9808 80.862 28.0073C80.7408 28.0342 80.6263 28.0764 80.5187 28.1331C80.411 28.19 80.3234 28.2655 80.2561 28.3594C80.1889 28.4533 80.1552 28.5673 80.1552 28.701C80.1552 28.9155 80.2359 29.0798 80.3975 29.1936C80.5591 29.3079 80.7627 29.405 81.0085 29.4854C81.2541 29.5659 81.5183 29.6463 81.8011 29.7267C82.0838 29.8069 82.348 29.9212 82.5938 30.0686C82.8394 30.2159 83.0431 30.4138 83.2046 30.6617C83.3662 30.9097 83.447 31.2414 83.447 31.6571C83.447 32.0526 83.3728 32.3976 83.2248 32.6926C83.0768 32.9876 82.8766 33.2321 82.6241 33.4266C82.3717 33.621 82.0789 33.765 81.7456 33.8589C81.4124 33.9528 81.0605 33.9996 80.6903 33.9996C80.2258 33.9996 79.7951 33.9293 79.3978 33.7885C79.0006 33.6478 78.6304 33.4199 78.2871 33.1048L79.4079 31.8783C79.5695 32.0928 79.7732 32.2588 80.019 32.3758C80.2645 32.4933 80.5187 32.5519 80.7812 32.5519C80.909 32.5519 81.0388 32.5369 81.1701 32.5065C81.3014 32.4763 81.4191 32.4312 81.5235 32.3709C81.6277 32.3106 81.7119 32.2336 81.7759 32.1397C81.8397 32.046 81.8717 31.9352 81.8717 31.8079C81.8717 31.5936 81.7892 31.4241 81.6245 31.3003C81.4592 31.1762 81.2523 31.0708 81.0034 30.9835C80.7544 30.8964 80.4849 30.8091 80.1955 30.7221C79.9062 30.635 79.6367 30.5176 79.3877 30.3699C79.1388 30.2228 78.9316 30.0283 78.7669 29.7868C78.6019 29.5458 78.5194 29.2275 78.5194 28.8319C78.5194 28.4499 78.5952 28.1147 78.7467 27.8265C78.8981 27.5382 79.1001 27.2971 79.3525 27.1027C79.605 26.9082 79.8961 26.7623 80.2258 26.6652C80.5556 26.5681 80.8957 26.5195 81.2457 26.5195C81.6496 26.5195 82.0399 26.5764 82.417 26.6902C82.7941 26.8045 83.1339 26.9953 83.4369 27.2633L82.3564 28.4398Z" fill="#1D1D1D"/>
</svg>
