<svg width="16" height="16" viewBox="0 0 16 16" fill="none" xmlns="http://www.w3.org/2000/svg">
<path fill-rule="evenodd" clip-rule="evenodd" d="M9.72193 2.42133C9.31081 2.14662 8.82746 2 8.33301 2C7.66997 2 7.03408 2.26339 6.56524 2.73223C6.0964 3.20107 5.83301 3.83696 5.83301 4.5C5.83301 4.99445 5.97963 5.4778 6.25433 5.88893C6.52904 6.30005 6.91948 6.62048 7.3763 6.8097C7.83311 6.99892 8.33578 7.04843 8.82073 6.95196C9.30569 6.8555 9.75114 6.6174 10.1008 6.26777C10.4504 5.91814 10.6885 5.47268 10.785 4.98773C10.8814 4.50277 10.8319 4.00011 10.6427 3.54329C10.4535 3.08648 10.1331 2.69603 9.72193 2.42133ZM6.38851 1.58986C6.96408 1.20527 7.64077 1 8.33301 1C9.26127 1 10.1515 1.36875 10.8079 2.02513C11.4643 2.6815 11.833 3.57174 11.833 4.5C11.833 5.19223 11.6277 5.86892 11.2432 6.4445C10.8586 7.02007 10.3119 7.46867 9.6724 7.73358C9.03286 7.99849 8.32913 8.0678 7.65019 7.93275C6.97126 7.7977 6.34762 7.46436 5.85813 6.97487C5.36865 6.48539 5.03531 5.86175 4.90026 5.18282C4.76521 4.50388 4.83452 3.80015 5.09943 3.16061C5.36434 2.52107 5.81294 1.97444 6.38851 1.58986ZM12.6663 15H13.333V12.5C13.333 11.5717 12.9643 10.6815 12.3079 10.0251C11.6515 9.36875 10.7613 9 9.83301 9H6.83301C5.90475 9 5.01451 9.36875 4.35813 10.0251C3.70176 10.6815 3.33301 11.5717 3.33301 12.5V15H3.99967H4.33301H12.333H12.6663ZM12.333 14V12.5C12.333 12.1717 12.2683 11.8466 12.1427 11.5433C12.0171 11.24 11.8329 10.9644 11.6008 10.7322C11.3686 10.5001 11.093 10.3159 10.7897 10.1903C10.4864 10.0647 10.1613 10 9.83301 10H6.83301C6.16997 10 5.53408 10.2634 5.06524 10.7322C4.5964 11.2011 4.33301 11.837 4.33301 12.5V14H12.333Z" fill="black"/>
</svg>
